<svg id="visual" viewBox="0 0 900 600" width="900" height="600" xmlns="http://www.w3.org/2000/svg" xmlns:xlink="http://www.w3.org/1999/xlink" version="1.1"><rect x="0" y="0" width="900" height="600" fill="#f3f3f3"></rect><path d="M0 275L129 275L129 360L257 360L257 277L386 277L386 301L514 301L514 281L643 281L643 348L771 348L771 352L900 352L900 374L900 601L900 601L771 601L771 601L643 601L643 601L514 601L514 601L386 601L386 601L257 601L257 601L129 601L129 601L0 601Z" fill="#0077ff"></path><path d="M0 451L129 451L129 387L257 387L257 449L386 449L386 436L514 436L514 380L643 380L643 460L771 460L771 379L900 379L900 390L900 601L900 601L771 601L771 601L643 601L643 601L514 601L514 601L386 601L386 601L257 601L257 601L129 601L129 601L0 601Z" fill="#005dc6"></path><path d="M0 444L129 444L129 534L257 534L257 484L386 484L386 451L514 451L514 459L643 459L643 479L771 479L771 462L900 462L900 477L900 601L900 601L771 601L771 601L643 601L643 601L514 601L514 601L386 601L386 601L257 601L257 601L129 601L129 601L0 601Z" fill="#00438f"></path></svg>